<?xml version="1.0" encoding="UTF-8" standalone="no"?>
<!DOCTYPE svg PUBLIC "-//W3C//DTD SVG 1.1//EN"
 "http://www.w3.org/Graphics/SVG/1.1/DTD/svg11.dtd">
<!-- Generated by graphviz version 12.1.2 (20240928.0832)
 -->
<!-- Pages: 1 -->
<svg width="247pt" height="690pt"
 viewBox="0.00 0.00 247.00 690.25" xmlns="http://www.w3.org/2000/svg" xmlns:xlink="http://www.w3.org/1999/xlink">
<g id="graph0" class="graph" transform="scale(1 1) rotate(0) translate(4 686.25)">
<polygon fill="#eeeeee" stroke="none" points="-4,4 -4,-686.25 243,-686.25 243,4 -4,4"/>
<!-- Product -->
<g id="node1" class="node">
<title>Product</title>
<g id="a_node1"><a xlink:href="http://Product_details.html" xlink:title="&lt;TABLE&gt;">
<polygon fill="#3f51b5" stroke="none" points="29.5,-657.25 29.5,-678.25 209.5,-678.25 209.5,-657.25 29.5,-657.25"/>
<polygon fill="none" stroke="black" points="29.5,-657.25 29.5,-678.25 209.5,-678.25 209.5,-657.25 29.5,-657.25"/>
<text text-anchor="start" x="99.25" y="-663.85" font-family="Roboto" font-size="12.00" fill="white">Product</text>
<polygon fill="#bbdefb" stroke="none" points="29.5,-636.25 29.5,-657.25 110.5,-657.25 110.5,-636.25 29.5,-636.25"/>
<polygon fill="none" stroke="black" points="29.5,-636.25 29.5,-657.25 110.5,-657.25 110.5,-636.25 29.5,-636.25"/>
<text text-anchor="start" x="65.12" y="-642.85" font-family="Roboto" font-size="12.00">id</text>
<polygon fill="#bbdefb" stroke="none" points="110.5,-636.25 110.5,-657.25 209.5,-657.25 209.5,-636.25 110.5,-636.25"/>
<polygon fill="none" stroke="black" points="110.5,-636.25 110.5,-657.25 209.5,-657.25 209.5,-636.25 110.5,-636.25"/>
<text text-anchor="start" x="122.5" y="-642.85" font-family="Roboto" font-size="12.00">INTEGER (PK)</text>
<polygon fill="#bbdefb" stroke="none" points="29.5,-615.25 29.5,-636.25 110.5,-636.25 110.5,-615.25 29.5,-615.25"/>
<polygon fill="none" stroke="black" points="29.5,-615.25 29.5,-636.25 110.5,-636.25 110.5,-615.25 29.5,-615.25"/>
<text text-anchor="start" x="32.12" y="-621.85" font-family="Roboto" font-size="12.00">product_name</text>
<polygon fill="#bbdefb" stroke="none" points="110.5,-615.25 110.5,-636.25 209.5,-636.25 209.5,-615.25 110.5,-615.25"/>
<polygon fill="none" stroke="black" points="110.5,-615.25 110.5,-636.25 209.5,-636.25 209.5,-615.25 110.5,-615.25"/>
<text text-anchor="start" x="113.12" y="-621.85" font-family="Roboto" font-size="12.00">VARCHAR(100) ()</text>
<polygon fill="#bbdefb" stroke="none" points="29.5,-594.25 29.5,-615.25 110.5,-615.25 110.5,-594.25 29.5,-594.25"/>
<polygon fill="none" stroke="black" points="29.5,-594.25 29.5,-615.25 110.5,-615.25 110.5,-594.25 29.5,-594.25"/>
<text text-anchor="start" x="57.25" y="-600.85" font-family="Roboto" font-size="12.00">price</text>
<polygon fill="#bbdefb" stroke="none" points="110.5,-594.25 110.5,-615.25 209.5,-615.25 209.5,-594.25 110.5,-594.25"/>
<polygon fill="none" stroke="black" points="110.5,-594.25 110.5,-615.25 209.5,-615.25 209.5,-594.25 110.5,-594.25"/>
<text text-anchor="start" x="136.75" y="-600.85" font-family="Roboto" font-size="12.00">FLOAT ()</text>
<polygon fill="#bbdefb" stroke="none" points="29.5,-573.25 29.5,-594.25 110.5,-594.25 110.5,-573.25 29.5,-573.25"/>
<polygon fill="none" stroke="black" points="29.5,-573.25 29.5,-594.25 110.5,-594.25 110.5,-573.25 29.5,-573.25"/>
<text text-anchor="start" x="56.5" y="-579.85" font-family="Roboto" font-size="12.00">stock</text>
<polygon fill="#bbdefb" stroke="none" points="110.5,-573.25 110.5,-594.25 209.5,-594.25 209.5,-573.25 110.5,-573.25"/>
<polygon fill="none" stroke="black" points="110.5,-573.25 110.5,-594.25 209.5,-594.25 209.5,-573.25 110.5,-573.25"/>
<text text-anchor="start" x="129.25" y="-579.85" font-family="Roboto" font-size="12.00">INTEGER ()</text>
</a>
</g>
</g>
<!-- OrderItem -->
<g id="node2" class="node">
<title>OrderItem</title>
<g id="a_node2"><a xlink:href="http://OrderItem_details.html" xlink:title="&lt;TABLE&gt;">
<polygon fill="#3f51b5" stroke="none" points="47.5,-495.5 47.5,-516.5 191.5,-516.5 191.5,-495.5 47.5,-495.5"/>
<polygon fill="none" stroke="black" points="47.5,-495.5 47.5,-516.5 191.5,-516.5 191.5,-495.5 47.5,-495.5"/>
<text text-anchor="start" x="92.5" y="-502.1" font-family="Roboto" font-size="12.00" fill="white">OrderItem</text>
<polygon fill="#bbdefb" stroke="none" points="47.5,-474.5 47.5,-495.5 110.5,-495.5 110.5,-474.5 47.5,-474.5"/>
<polygon fill="none" stroke="black" points="47.5,-474.5 47.5,-495.5 110.5,-495.5 110.5,-474.5 47.5,-474.5"/>
<text text-anchor="start" x="74.12" y="-481.1" font-family="Roboto" font-size="12.00">id</text>
<polygon fill="#bbdefb" stroke="none" points="110.5,-474.5 110.5,-495.5 191.5,-495.5 191.5,-474.5 110.5,-474.5"/>
<polygon fill="none" stroke="black" points="110.5,-474.5 110.5,-495.5 191.5,-495.5 191.5,-474.5 110.5,-474.5"/>
<text text-anchor="start" x="113.5" y="-481.1" font-family="Roboto" font-size="12.00">INTEGER (PK)</text>
<polygon fill="#bbdefb" stroke="none" points="47.5,-453.5 47.5,-474.5 110.5,-474.5 110.5,-453.5 47.5,-453.5"/>
<polygon fill="none" stroke="black" points="47.5,-453.5 47.5,-474.5 110.5,-474.5 110.5,-453.5 47.5,-453.5"/>
<text text-anchor="start" x="56.5" y="-460.1" font-family="Roboto" font-size="12.00">order_id</text>
<polygon fill="#bbdefb" stroke="none" points="110.5,-453.5 110.5,-474.5 191.5,-474.5 191.5,-453.5 110.5,-453.5"/>
<polygon fill="none" stroke="black" points="110.5,-453.5 110.5,-474.5 191.5,-474.5 191.5,-453.5 110.5,-453.5"/>
<text text-anchor="start" x="120.25" y="-460.1" font-family="Roboto" font-size="12.00">INTEGER ()</text>
<polygon fill="#bbdefb" stroke="none" points="47.5,-432.5 47.5,-453.5 110.5,-453.5 110.5,-432.5 47.5,-432.5"/>
<polygon fill="none" stroke="black" points="47.5,-432.5 47.5,-453.5 110.5,-453.5 110.5,-432.5 47.5,-432.5"/>
<text text-anchor="start" x="50.5" y="-439.1" font-family="Roboto" font-size="12.00">product_id</text>
<polygon fill="#bbdefb" stroke="none" points="110.5,-432.5 110.5,-453.5 191.5,-453.5 191.5,-432.5 110.5,-432.5"/>
<polygon fill="none" stroke="black" points="110.5,-432.5 110.5,-453.5 191.5,-453.5 191.5,-432.5 110.5,-432.5"/>
<text text-anchor="start" x="120.25" y="-439.1" font-family="Roboto" font-size="12.00">INTEGER ()</text>
<polygon fill="#bbdefb" stroke="none" points="47.5,-411.5 47.5,-432.5 110.5,-432.5 110.5,-411.5 47.5,-411.5"/>
<polygon fill="none" stroke="black" points="47.5,-411.5 47.5,-432.5 110.5,-432.5 110.5,-411.5 47.5,-411.5"/>
<text text-anchor="start" x="57.62" y="-418.1" font-family="Roboto" font-size="12.00">quantity</text>
<polygon fill="#bbdefb" stroke="none" points="110.5,-411.5 110.5,-432.5 191.5,-432.5 191.5,-411.5 110.5,-411.5"/>
<polygon fill="none" stroke="black" points="110.5,-411.5 110.5,-432.5 191.5,-432.5 191.5,-411.5 110.5,-411.5"/>
<text text-anchor="start" x="120.25" y="-418.1" font-family="Roboto" font-size="12.00">INTEGER ()</text>
<polygon fill="#bbdefb" stroke="none" points="47.5,-390.5 47.5,-411.5 110.5,-411.5 110.5,-390.5 47.5,-390.5"/>
<polygon fill="none" stroke="black" points="47.5,-390.5 47.5,-411.5 110.5,-411.5 110.5,-390.5 47.5,-390.5"/>
<text text-anchor="start" x="58" y="-397.1" font-family="Roboto" font-size="12.00">subtotal</text>
<polygon fill="#bbdefb" stroke="none" points="110.5,-390.5 110.5,-411.5 191.5,-411.5 191.5,-390.5 110.5,-390.5"/>
<polygon fill="none" stroke="black" points="110.5,-390.5 110.5,-411.5 191.5,-411.5 191.5,-390.5 110.5,-390.5"/>
<text text-anchor="start" x="127.75" y="-397.1" font-family="Roboto" font-size="12.00">FLOAT ()</text>
</a>
</g>
</g>
<!-- Product&#45;&gt;OrderItem -->
<g id="edge1" class="edge">
<title>Product&#45;&gt;OrderItem</title>
<g id="a_edge1"><a xlink:title="Relation between Product and OrderItem">
<path fill="none" stroke="#1e88e5" stroke-dasharray="5,2" d="M89.44,-569.53C87.13,-563.5 85.15,-557.33 83.75,-551.25 82.26,-544.77 81.95,-538.13 82.52,-531.51"/>
<polygon fill="#1e88e5" stroke="#1e88e5" points="85.93,-532.35 84.01,-521.93 79.01,-531.28 85.93,-532.35"/>
</a>
</g>
<text text-anchor="middle" x="109.62" y="-541.75" font-family="Roboto" font-size="10.00">order_items</text>
</g>
<!-- OrderItem&#45;&gt;Product -->
<g id="edge5" class="edge">
<title>OrderItem&#45;&gt;Product</title>
<g id="a_edge5"><a xlink:title="Relation between OrderItem and Product">
<path fill="none" stroke="#1e88e5" stroke-dasharray="5,2" d="M135.25,-520.46C136.3,-530.74 136.57,-541.26 135.5,-551.25 135.25,-553.58 134.95,-555.95 134.62,-558.34"/>
<polygon fill="#1e88e5" stroke="#1e88e5" points="131.19,-557.65 133.08,-568.08 138.1,-558.75 131.19,-557.65"/>
</a>
</g>
<text text-anchor="middle" x="152.28" y="-541.75" font-family="Roboto" font-size="10.00">product</text>
</g>
<!-- Order -->
<g id="node3" class="node">
<title>Order</title>
<g id="a_node3"><a xlink:href="http://Order_details.html" xlink:title="&lt;TABLE&gt;">
<polygon fill="#3f51b5" stroke="none" points="41.5,-312.75 41.5,-333.75 197.5,-333.75 197.5,-312.75 41.5,-312.75"/>
<polygon fill="none" stroke="black" points="41.5,-312.75 41.5,-333.75 197.5,-333.75 197.5,-312.75 41.5,-312.75"/>
<text text-anchor="start" x="104.5" y="-319.35" font-family="Roboto" font-size="12.00" fill="white">Order</text>
<polygon fill="#bbdefb" stroke="none" points="41.5,-291.75 41.5,-312.75 116.5,-312.75 116.5,-291.75 41.5,-291.75"/>
<polygon fill="none" stroke="black" points="41.5,-291.75 41.5,-312.75 116.5,-312.75 116.5,-291.75 41.5,-291.75"/>
<text text-anchor="start" x="74.12" y="-298.35" font-family="Roboto" font-size="12.00">id</text>
<polygon fill="#bbdefb" stroke="none" points="116.5,-291.75 116.5,-312.75 197.5,-312.75 197.5,-291.75 116.5,-291.75"/>
<polygon fill="none" stroke="black" points="116.5,-291.75 116.5,-312.75 197.5,-312.75 197.5,-291.75 116.5,-291.75"/>
<text text-anchor="start" x="119.5" y="-298.35" font-family="Roboto" font-size="12.00">INTEGER (PK)</text>
<polygon fill="#bbdefb" stroke="none" points="41.5,-270.75 41.5,-291.75 116.5,-291.75 116.5,-270.75 41.5,-270.75"/>
<polygon fill="none" stroke="black" points="41.5,-270.75 41.5,-291.75 116.5,-291.75 116.5,-270.75 41.5,-270.75"/>
<text text-anchor="start" x="59.5" y="-277.35" font-family="Roboto" font-size="12.00">user_id</text>
<polygon fill="#bbdefb" stroke="none" points="116.5,-270.75 116.5,-291.75 197.5,-291.75 197.5,-270.75 116.5,-270.75"/>
<polygon fill="none" stroke="black" points="116.5,-270.75 116.5,-291.75 197.5,-291.75 197.5,-270.75 116.5,-270.75"/>
<text text-anchor="start" x="126.25" y="-277.35" font-family="Roboto" font-size="12.00">INTEGER ()</text>
<polygon fill="#bbdefb" stroke="none" points="41.5,-249.75 41.5,-270.75 116.5,-270.75 116.5,-249.75 41.5,-249.75"/>
<polygon fill="none" stroke="black" points="41.5,-249.75 41.5,-270.75 116.5,-270.75 116.5,-249.75 41.5,-249.75"/>
<text text-anchor="start" x="50.12" y="-256.35" font-family="Roboto" font-size="12.00">order_date</text>
<polygon fill="#bbdefb" stroke="none" points="116.5,-249.75 116.5,-270.75 197.5,-270.75 197.5,-249.75 116.5,-249.75"/>
<polygon fill="none" stroke="black" points="116.5,-249.75 116.5,-270.75 197.5,-270.75 197.5,-249.75 116.5,-249.75"/>
<text text-anchor="start" x="122.88" y="-256.35" font-family="Roboto" font-size="12.00">DATETIME ()</text>
<polygon fill="#bbdefb" stroke="none" points="41.5,-228.75 41.5,-249.75 116.5,-249.75 116.5,-228.75 41.5,-228.75"/>
<polygon fill="none" stroke="black" points="41.5,-228.75 41.5,-249.75 116.5,-249.75 116.5,-228.75 41.5,-228.75"/>
<text text-anchor="start" x="44.12" y="-235.35" font-family="Roboto" font-size="12.00">total_amount</text>
<polygon fill="#bbdefb" stroke="none" points="116.5,-228.75 116.5,-249.75 197.5,-249.75 197.5,-228.75 116.5,-228.75"/>
<polygon fill="none" stroke="black" points="116.5,-228.75 116.5,-249.75 197.5,-249.75 197.5,-228.75 116.5,-228.75"/>
<text text-anchor="start" x="133.75" y="-235.35" font-family="Roboto" font-size="12.00">FLOAT ()</text>
</a>
</g>
</g>
<!-- OrderItem&#45;&gt;Order -->
<g id="edge4" class="edge">
<title>OrderItem&#45;&gt;Order</title>
<g id="a_edge4"><a xlink:title="Relation between OrderItem and Order">
<path fill="none" stroke="#1e88e5" stroke-dasharray="5,2" d="M93.63,-386.51C91.94,-376.28 91.51,-365.78 93.25,-355.75 93.67,-353.31 94.17,-350.84 94.73,-348.37"/>
<polygon fill="#1e88e5" stroke="#1e88e5" points="98.04,-349.51 97.14,-338.96 91.26,-347.77 98.04,-349.51"/>
</a>
</g>
<text text-anchor="middle" x="104.88" y="-359" font-family="Roboto" font-size="10.00">order</text>
</g>
<!-- Order&#45;&gt;OrderItem -->
<g id="edge3" class="edge">
<title>Order&#45;&gt;OrderItem</title>
<g id="a_edge3"><a xlink:title="Relation between Order and OrderItem">
<path fill="none" stroke="#1e88e5" stroke-dasharray="5,2" d="M120.33,-337.63C120.4,-343.75 120.46,-349.88 120.5,-355.75 120.54,-362.15 120.55,-368.79 120.53,-375.46"/>
<polygon fill="#1e88e5" stroke="#1e88e5" points="117.04,-375.14 120.49,-385.15 124.04,-375.17 117.04,-375.14"/>
</a>
</g>
<text text-anchor="middle" x="146.42" y="-359" font-family="Roboto" font-size="10.00">order_items</text>
</g>
<!-- User -->
<g id="node4" class="node">
<title>User</title>
<g id="a_node4"><a xlink:href="http://User_details.html" xlink:title="&lt;TABLE&gt;">
<polygon fill="#3f51b5" stroke="none" points="8,-151 8,-172 231,-172 231,-151 8,-151"/>
<polygon fill="none" stroke="black" points="8,-151 8,-172 231,-172 231,-151 8,-151"/>
<text text-anchor="start" x="107.88" y="-157.6" font-family="Roboto" font-size="12.00" fill="white">User</text>
<polygon fill="#bbdefb" stroke="none" points="8,-130 8,-151 95,-151 95,-130 8,-130"/>
<polygon fill="none" stroke="black" points="8,-130 8,-151 95,-151 95,-130 8,-130"/>
<text text-anchor="start" x="46.62" y="-136.6" font-family="Roboto" font-size="12.00">id</text>
<polygon fill="#bbdefb" stroke="none" points="95,-130 95,-151 231,-151 231,-130 95,-130"/>
<polygon fill="none" stroke="black" points="95,-130 95,-151 231,-151 231,-130 95,-130"/>
<text text-anchor="start" x="125.5" y="-136.6" font-family="Roboto" font-size="12.00">INTEGER (PK)</text>
<polygon fill="#bbdefb" stroke="none" points="8,-109 8,-130 95,-130 95,-109 8,-109"/>
<polygon fill="none" stroke="black" points="8,-109 8,-130 95,-130 95,-109 8,-109"/>
<text text-anchor="start" x="23.75" y="-115.6" font-family="Roboto" font-size="12.00">first_name</text>
<polygon fill="#bbdefb" stroke="none" points="95,-109 95,-130 231,-130 231,-109 95,-109"/>
<polygon fill="none" stroke="black" points="95,-109 95,-130 231,-130 231,-109 95,-109"/>
<text text-anchor="start" x="119.5" y="-115.6" font-family="Roboto" font-size="12.00">VARCHAR(80) ()</text>
<polygon fill="#bbdefb" stroke="none" points="8,-88 8,-109 95,-109 95,-88 8,-88"/>
<polygon fill="none" stroke="black" points="8,-88 8,-109 95,-109 95,-88 8,-88"/>
<text text-anchor="start" x="24.88" y="-94.6" font-family="Roboto" font-size="12.00">last_name</text>
<polygon fill="#bbdefb" stroke="none" points="95,-88 95,-109 231,-109 231,-88 95,-88"/>
<polygon fill="none" stroke="black" points="95,-88 95,-109 231,-109 231,-88 95,-88"/>
<text text-anchor="start" x="119.5" y="-94.6" font-family="Roboto" font-size="12.00">VARCHAR(80) ()</text>
<polygon fill="#bbdefb" stroke="none" points="8,-67 8,-88 95,-88 95,-67 8,-67"/>
<polygon fill="none" stroke="black" points="8,-67 8,-88 95,-88 95,-67 8,-67"/>
<text text-anchor="start" x="37.62" y="-73.6" font-family="Roboto" font-size="12.00">email</text>
<polygon fill="#bbdefb" stroke="none" points="95,-67 95,-88 231,-88 231,-67 95,-67"/>
<polygon fill="none" stroke="black" points="95,-67 95,-88 231,-88 231,-67 95,-67"/>
<text text-anchor="start" x="97.75" y="-73.6" font-family="Roboto" font-size="12.00">VARCHAR(120) (Unique)</text>
<polygon fill="#bbdefb" stroke="none" points="8,-46 8,-67 95,-67 95,-46 8,-46"/>
<polygon fill="none" stroke="black" points="8,-46 8,-67 95,-67 95,-46 8,-46"/>
<text text-anchor="start" x="11.38" y="-52.6" font-family="Roboto" font-size="12.00">phone_number</text>
<polygon fill="#bbdefb" stroke="none" points="95,-46 95,-67 231,-67 231,-46 95,-46"/>
<polygon fill="none" stroke="black" points="95,-46 95,-67 231,-67 231,-46 95,-46"/>
<text text-anchor="start" x="119.5" y="-52.6" font-family="Roboto" font-size="12.00">VARCHAR(20) ()</text>
<polygon fill="#bbdefb" stroke="none" points="8,-25 8,-46 95,-46 95,-25 8,-25"/>
<polygon fill="none" stroke="black" points="8,-25 8,-46 95,-46 95,-25 8,-25"/>
<text text-anchor="start" x="10.62" y="-31.6" font-family="Roboto" font-size="12.00">password_hash</text>
<polygon fill="#bbdefb" stroke="none" points="95,-25 95,-46 231,-46 231,-25 95,-25"/>
<polygon fill="none" stroke="black" points="95,-25 95,-46 231,-46 231,-25 95,-25"/>
<text text-anchor="start" x="116.12" y="-31.6" font-family="Roboto" font-size="12.00">VARCHAR(128) ()</text>
<polygon fill="#bbdefb" stroke="none" points="8,-4 8,-25 95,-25 95,-4 8,-4"/>
<polygon fill="none" stroke="black" points="8,-4 8,-25 95,-25 95,-4 8,-4"/>
<text text-anchor="start" x="27.88" y="-10.6" font-family="Roboto" font-size="12.00">is_admin</text>
<polygon fill="#bbdefb" stroke="none" points="95,-4 95,-25 231,-25 231,-4 95,-4"/>
<polygon fill="none" stroke="black" points="95,-4 95,-25 231,-25 231,-4 95,-4"/>
<text text-anchor="start" x="130.75" y="-10.6" font-family="Roboto" font-size="12.00">BOOLEAN ()</text>
</a>
</g>
</g>
<!-- Order&#45;&gt;User -->
<g id="edge2" class="edge">
<title>Order&#45;&gt;User</title>
<g id="a_edge2"><a xlink:title="Relation between Order and User">
<path fill="none" stroke="#1e88e5" stroke-dasharray="5,2" d="M102.95,-224.78C101.64,-218.74 100.53,-212.64 99.75,-206.75 98.9,-200.3 98.55,-193.66 98.6,-186.98"/>
<polygon fill="#1e88e5" stroke="#1e88e5" points="102.09,-187.35 98.98,-177.22 95.09,-187.08 102.09,-187.35"/>
</a>
</g>
<text text-anchor="middle" x="109.12" y="-197.25" font-family="Roboto" font-size="10.00">user</text>
</g>
<!-- User&#45;&gt;Order -->
<g id="edge6" class="edge">
<title>User&#45;&gt;Order</title>
<g id="a_edge6"><a xlink:title="Relation between User and Order">
<path fill="none" stroke="#1e88e5" stroke-dasharray="5,2" d="M119.5,-175.9C119.5,-188.53 119.5,-201.37 119.5,-213.52"/>
<polygon fill="#1e88e5" stroke="#1e88e5" points="116,-213.42 119.5,-223.42 123,-213.42 116,-213.42"/>
</a>
</g>
<text text-anchor="middle" x="133.38" y="-197.25" font-family="Roboto" font-size="10.00">orders</text>
</g>
</g>
</svg>
